Coordinates
version=1
nRows=13
nColumns=40
inDegrees=yes

Units are S.I. units (second, meters, Newtons, ...)
Angles are in degrees.

endheader
time	pelvis_tilt	pelvis_list	pelvis_rotation	pelvis_tx	pelvis_ty	pelvis_tz	hip_flexion_r	hip_adduction_r	hip_rotation_r	knee_angle_r	knee_angle_r_beta	ankle_angle_r	subtalar_angle_r	mtp_angle_r	hip_flexion_l	hip_adduction_l	hip_rotation_l	knee_angle_l	knee_angle_l_beta	ankle_angle_l	subtalar_angle_l	mtp_angle_l	lumbar_extension	lumbar_bending	lumbar_rotation	arm_flex_r	arm_add_r	arm_rot_r	elbow_flex_r	pro_sup_r	wrist_flex_r	wrist_dev_r	arm_flex_l	arm_add_l	arm_rot_l	elbow_flex_l	pro_sup_l	wrist_flex_l	wrist_dev_l
      1.38000000	      0.84389851	     -0.42135913	      4.15550043	      0.46595149	      0.88177396	     -1.01359795	     27.14417213	     -1.50906858	    -19.29912942	    -18.32354440	     -0.31980618	     -0.89654961	      1.34210882	     -2.49661589	    -13.39551966	     -0.74613451	      8.76740650	    -13.70094087	     -0.23912653	      9.43159928	    -10.66946162	     -7.66713604	     -5.38630526	      2.94601267	     -9.79325001	     -3.00976522	     -8.88907650	     19.85330179	     15.11085028	     89.95437384	      0.00000000	      0.00000000	     16.82993291	     12.33058223	    -13.25782359	     35.01205118	     89.95437384	      0.00000000	      0.00000000
      1.39000000	      0.62899628	     -0.52522179	      4.56573892	      0.48025662	      0.87947302	     -1.01329272	     27.72603203	     -1.60172619	    -20.92857094	    -16.96253703	     -0.29605212	     -0.82246841	      2.84897038	     -2.94193486	    -13.84466079	     -0.34110700	      8.47377014	    -14.27114231	     -0.24907842	      9.25472095	    -10.94765251	     -7.73120717	     -5.08292684	      3.12564877	     -9.94942873	     -3.86292842	     -8.73395303	     19.62960820	     14.47542523	     89.95437384	      0.00000000	      0.00000000	     17.40729500	     12.45956051	    -12.91891984	     36.80253455	     89.95437384	      0.00000000	      0.00000000
      1.40000000	      0.40343438	     -0.64856881	      4.95099959	      0.49491047	      0.87717969	     -1.01283374	     28.32444556	     -1.62229122	    -22.20265493	    -16.19775238	     -0.28270411	     -0.77840988	      3.96950719	     -3.29457150	    -14.20453421	      0.10859592	      8.03530447	    -15.01516923	     -0.26206414	      8.93508283	    -11.18046695	     -7.76419947	     -4.74194874	      3.30051441	    -10.10253419	     -4.66706885	     -8.56267327	     19.42870103	     13.78680430	     89.95437384	      0.00000000	      0.00000000	     17.79638756	     12.66002303	    -12.61907559	     38.82124346	     89.95437384	      0.00000000	      0.00000000
      1.41000000	      0.37605426	     -0.73860882	      5.46177146	      0.51006748	      0.87520204	     -1.01296725	     28.77408447	     -2.02127666	    -24.12229432	    -16.40340346	     -0.28629340	     -1.23389010	      5.97507015	     -9.29126419	    -14.67416488	      0.64238112	      8.00994126	    -15.91950208	     -0.27784773	      8.12614254	    -11.82344749	     -9.21877596	     -4.54666046	      3.51496006	    -10.29532435	     -5.47817950	     -8.38811188	     18.75109071	     13.05706226	     89.95437384	      0.00000000	      0.00000000	     18.18172693	     12.62514824	    -12.14924831	     40.56195532	     89.95437384	      0.00000000	      0.00000000
      1.42000000	      0.22383974	     -0.77632337	      5.60134833	      0.52535590	      0.87318537	     -1.01253826	     29.28360259	     -1.94507669	    -23.71451209	    -16.90924201	     -0.29512195	     -1.16300222	      5.67443968	     -9.09017320	    -15.07839739	      0.89696962	      7.38157897	    -16.78150164	     -0.29289246	      7.63451640	    -11.48606648	     -9.01465167	     -4.23137771	      3.62170480	    -10.00416621	     -6.41777462	     -8.37331881	     18.71619969	     12.65149565	     89.95437384	      0.00000000	      0.00000000	     18.57483995	     12.50303388	    -11.86089460	     42.15066210	     89.95437384	      0.00000000	      0.00000000
      1.43000000	      0.26652565	     -0.91725100	      6.07919675	      0.54130587	      0.87157764	     -1.01254999	     29.50049900	     -1.90931992	    -23.37832465	    -18.04564197	     -0.31495587	     -0.77472236	      4.49592223	     -8.77106551	    -15.55157574	      1.43202388	      6.84188727	    -17.82569068	     -0.31111699	      6.96811083	    -11.30085823	     -8.83486287	     -4.01705519	      3.87504257	    -10.51183673	     -6.89547103	     -8.21865229	     18.55338246	     11.66487510	     89.95437384	      0.00000000	      0.00000000	     18.25203972	     12.75288471	    -11.21428731	     44.57192671	     89.95437384	      0.00000000	      0.00000000
      1.44000000	      0.34574991	     -1.02110261	      6.40959347	      0.55759563	      0.87009814	     -1.01241177	     29.63356187	     -1.74643863	    -22.51637360	    -19.52374593	     -0.34075365	     -0.60500947	      2.11830867	     -8.10635797	    -15.93404022	      1.91332567	      6.34071477	    -19.14063508	     -0.33406710	      5.89486397	    -11.31430654	     -8.67055712	     -3.80675215	      4.08159089	    -10.74383404	     -7.50298795	     -8.10442991	     18.11425945	     10.91803621	     89.95437384	      0.00000000	      0.00000000	     17.93804345	     12.70640868	    -10.27123256	     46.68257918	     89.95437384	      0.00000000	      0.00000000
      1.45000000	      0.45482362	     -1.14128302	      6.56061557	      0.57426377	      0.86870337	     -1.01194613	     29.76129605	     -1.46457201	    -21.53375842	    -21.33164788	     -0.37230749	     -1.65276305	     -0.52092406	     -7.26154387	    -16.26355253	      2.39553402	      6.20964609	    -20.60580789	     -0.35963919	      4.47501393	    -11.21763582	     -8.43515875	     -3.59939969	      4.27941346	    -10.75909541	     -8.13804774	     -8.03105103	     17.76578358	     10.26654936	     89.95437384	      0.00000000	      0.00000000	     17.53952517	     12.71912972	     -9.65820943	     48.76684908	     89.95437384	      0.00000000	      0.00000000
      1.46000000	      0.41985717	     -1.77302638	      6.52546308	      0.59081384	      0.86722101	     -1.01040760	     29.82129420	      0.01241678	    -18.97102556	    -22.17267757	     -0.38698623	     -6.35681851	     -7.37003414	     -4.40126125	    -15.91561591	      3.69527845	      7.33634713	    -22.92943734	     -0.40019418	      2.53055379	    -12.51321569	     -8.74782129	     -3.20520115	      4.97824070	    -10.53554197	     -8.74254969	     -7.92071383	     16.66908701	      9.74530077	     89.95437384	      0.00000000	      0.00000000	     17.08812511	     12.58469802	     -8.84158867	     50.66866596	     89.95437384	      0.00000000	      0.00000000
      1.47000000	      0.56305214	     -1.85329026	      6.50446466	      0.60757517	      0.86641236	     -1.00974611	     30.03462988	      0.16919243	    -17.61434338	    -24.45030192	     -0.42673827	     -7.91913353	     -7.54843007	     -3.74767571	    -15.84905965	      4.08898003	      7.31742973	    -25.02980938	     -0.43685258	      0.48023165	    -11.51885947	     -8.30726716	     -3.04065105	      5.13881185	    -10.34471359	     -9.31089898	     -7.93294147	     16.59198411	      9.33391214	     89.95437384	      0.00000000	      0.00000000	     16.60046792	     12.51333476	     -8.35740927	     52.43767417	     89.95437384	      0.00000000	      0.00000000
      1.48000000	      0.12934609	     -2.49078325	      6.21975215	      0.62375063	      0.86490721	     -1.00760040	     31.01337748	      1.34887088	    -15.51638642	    -26.54926156	     -0.46337203	     -8.52499302	    -10.70107459	     -1.88374748	    -14.42503144	      5.47665074	      8.82342565	    -28.29843439	     -0.49390085	     -2.63304032	    -12.82999693	     -8.69111344	     -2.22892212	      5.75335652	     -9.92811983	     -9.79203732	     -7.87954423	     16.03663464	      8.91065745	     89.95437384	      0.00000000	      0.00000000	     15.96722896	     12.36242712	     -7.62933196	     54.03758940	     89.95437384	      0.00000000	      0.00000000
      1.49000000	      0.34765206	     -2.61336790	      6.12037393	      0.64045062	      0.86494242	     -1.00665927	     31.08399570	      1.58697375	    -15.12319022	    -29.04171261	     -0.50687351	     -7.20901559	    -11.22591528	     -1.56374943	    -13.82129957	      6.02045236	      9.12082836	    -31.11048742	     -0.54298044	     -5.83559538	    -10.98466962	     -7.98493223	     -2.16892287	      5.95495100	     -9.63096720	    -10.22970710	     -7.92753361	     16.04884847	      8.70132995	     89.95437384	      0.00000000	      0.00000000	     15.35156523	     12.15184369	     -7.00010933	     55.44402393	     89.95437384	      0.00000000	      0.00000000
      1.50000000	     -0.07695469	     -3.20453735	      5.81226220	      0.65633580	      0.86421972	     -1.00452755	     31.69623568	      3.00961842	    -13.29016305	    -30.99267126	     -0.54092416	     -5.15385761	    -12.08099379	      9.59576685	    -11.93271289	      7.39423639	     10.34091271	    -34.57431215	     -0.60343558	    -10.90831059	    -11.08298551	    -10.43624620	     -1.42606556	      6.52727708	     -9.21342977	    -10.52642407	     -7.93635056	     15.88900274	      8.44708594	     89.95437384	      0.00000000	      0.00000000	     14.58647124	     11.97856058	     -6.35759512	     56.71159169	     89.95437384	      0.00000000	      0.00000000
